<svg width="40" height="40" viewBox="0 0 40 40" fill="none" xmlns="http://www.w3.org/2000/svg">
<circle cx="20" cy="20" r="20" fill="#53CD81"/>
<path d="M16.6575 12.9163C16.5485 13.028 16.4874 13.1778 16.4874 13.3338C16.4874 13.4899 16.5485 13.6397 16.6575 13.7513L22.7487 20.0001L16.6575 26.2476C16.5485 26.3592 16.4874 26.5091 16.4874 26.6651C16.4874 26.8211 16.5485 26.971 16.6575 27.0826C16.7105 27.137 16.7739 27.1803 16.8438 27.2098C16.9138 27.2394 16.989 27.2546 17.065 27.2546C17.141 27.2546 17.2162 27.2394 17.2861 27.2098C17.3561 27.1803 17.4195 27.137 17.4725 27.0826L23.95 20.4363C24.0638 20.3196 24.1274 20.1631 24.1274 20.0001C24.1274 19.8371 24.0638 19.6806 23.95 19.5638L17.4725 12.9176C17.4195 12.8632 17.3561 12.8199 17.2861 12.7904C17.2162 12.7608 17.141 12.7456 17.065 12.7456C16.989 12.7456 16.9138 12.7608 16.8438 12.7904C16.7739 12.8199 16.7105 12.8632 16.6575 12.9176V12.9163Z" fill="black"/>
</svg>
