<svg width="22" height="22" viewBox="0 0 22 22" fill="none" xmlns="http://www.w3.org/2000/svg">
<path d="M11 0.200012C16.9649 0.200012 21.8 5.03517 21.8 11C21.8 16.9649 16.9649 21.8 11 21.8C5.03517 21.8 0.200012 16.9649 0.200012 11C0.200012 5.03517 5.03517 0.200012 11 0.200012ZM11 1.70661C8.53525 1.70661 6.17144 2.68574 4.42859 4.42859C2.68574 6.17144 1.70661 8.53525 1.70661 11C1.70661 13.4648 2.68574 15.8286 4.42859 17.5714C6.17144 19.3143 8.53525 20.2934 11 20.2934C13.4648 20.2934 15.8286 19.3143 17.5714 17.5714C19.3143 15.8286 20.2934 13.4648 20.2934 11C20.2934 8.53525 19.3143 6.17144 17.5714 4.42859C15.8286 2.68574 13.4648 1.70661 11 1.70661ZM10.8434 7.98681C11.2592 7.98681 11.5962 8.32485 11.5962 8.74065V16.9033C11.5888 17.0981 11.5062 17.2826 11.3657 17.4178C11.2253 17.553 11.0379 17.6286 10.8429 17.6286C10.6479 17.6286 10.4605 17.553 10.32 17.4178C10.1795 17.2826 10.097 17.0981 10.0896 16.9033V8.73957C10.0896 8.32377 10.4265 7.98681 10.8434 7.98681ZM10.8737 4.97361C11.14 4.97361 11.3955 5.07943 11.5839 5.26779C11.7722 5.45616 11.8781 5.71163 11.8781 5.97801C11.8781 6.2444 11.7722 6.49987 11.5839 6.68823C11.3955 6.87659 11.14 6.98241 10.8737 6.98241C10.6073 6.98241 10.3518 6.87659 10.1634 6.68823C9.97507 6.49987 9.86925 6.2444 9.86925 5.97801C9.86925 5.71163 9.97507 5.45616 10.1634 5.26779C10.3518 5.07943 10.6073 4.97361 10.8737 4.97361Z" fill="black"/>
</svg>
