<svg width="24" height="13" viewBox="0 0 24 13" fill="none" xmlns="http://www.w3.org/2000/svg">
<path d="M21.9959 0.652005L11.9999 10.396L2.00391 0.652005C1.82531 0.47756 1.58556 0.379899 1.33591 0.379899C1.08625 0.379899 0.846504 0.47756 0.667908 0.652005C0.581433 0.736734 0.512733 0.837865 0.465833 0.949477C0.418933 1.06109 0.394775 1.18094 0.394775 1.302C0.394775 1.42307 0.418933 1.54292 0.465833 1.65453C0.512733 1.76614 0.581433 1.86728 0.667908 1.952L11.3019 12.32C11.4887 12.502 11.7391 12.6039 11.9999 12.6039C12.2607 12.6039 12.5112 12.502 12.6979 12.32L23.3319 1.95401C23.419 1.86921 23.4882 1.76783 23.5355 1.65585C23.5827 1.54387 23.6071 1.42355 23.6071 1.302C23.6071 1.18046 23.5827 1.06014 23.5355 0.948158C23.4882 0.836176 23.419 0.734797 23.3319 0.650004C23.1533 0.47556 22.9136 0.377899 22.6639 0.377899C22.4143 0.377899 22.1745 0.47556 21.9959 0.650004V0.652005Z" fill="black"/>
</svg>
