<svg width="96" height="96" viewBox="0 0 96 96" fill="none" xmlns="http://www.w3.org/2000/svg">
<path d="M56 18.6667V13.3333H50.6667V8H45.3333V13.3333H40V18.6667H45.3333V24H50.6667V18.6667H56Z" fill="#EEEEEE"/>
<path fill-rule="evenodd" clip-rule="evenodd" d="M67.5195 28.712L72.7942 13.7627C74.2235 9.70933 72.1862 5.12267 67.9168 3.77067C62.9595 2.19733 54.8528 0 47.9995 0C41.1462 0 33.0395 2.19733 28.0795 3.77067C23.8128 5.12533 21.7755 9.712 23.2048 13.7627L28.4822 28.712C27.0497 31.9594 26.45 35.513 26.7376 39.0506C27.0252 42.5883 28.1909 45.9983 30.1292 48.9717C32.0674 51.9451 34.7169 54.3879 37.8375 56.0789C40.9582 57.7698 44.4515 58.6554 48.0008 58.6554C51.5502 58.6554 55.0434 57.7698 58.1641 56.0789C61.2848 54.3879 63.9343 51.9451 65.8725 48.9717C67.8107 45.9983 68.9764 42.5883 69.264 39.0506C69.5516 35.513 68.952 31.9594 67.5195 28.712ZM47.9995 5.33333C42.0262 5.33333 34.5888 7.30133 29.6928 8.85333C28.4662 9.24267 27.7462 10.608 28.2342 11.9893L33.6315 27.28C43.1968 24.24 52.8022 24.24 62.3675 27.28L67.7648 11.9893C68.2528 10.608 67.5328 9.24267 66.3062 8.856C61.4102 7.30133 53.9702 5.33333 47.9995 5.33333ZM63.4822 33.2827H63.4795C63.3378 33.2541 63.1987 33.2139 63.0635 33.1627C52.9995 29.3893 42.9995 29.3893 32.9355 33.1627C32.7994 33.214 32.6594 33.2542 32.5168 33.2827C31.901 35.6484 31.8355 38.1237 32.3252 40.5187C32.815 42.9137 33.847 45.1647 35.342 47.0987C36.8371 49.0328 38.7555 50.5986 40.9498 51.6758C43.1442 52.7531 45.5563 53.3133 48.0008 53.3133C50.4454 53.3133 52.8574 52.7531 55.0518 51.6758C57.2462 50.5986 59.1645 49.0328 60.6596 47.0987C62.1547 45.1647 63.1867 42.9137 63.6764 40.5187C64.1662 38.1237 64.1006 35.6484 63.4848 33.2827H63.4822Z" fill="#EEEEEE"/>
<path d="M74.6667 74.6666H80V80H74.6667V85.3333H69.3333V80H64V74.6666H69.3333V69.3333H74.6667V74.6666Z" fill="#EEEEEE"/>
<path fill-rule="evenodd" clip-rule="evenodd" d="M29.0107 58.6667C29.0107 58.6667 0 67.7147 0 78.5787V96H96V78.5787C96 67.7147 66.9893 58.6667 66.9893 58.6667L51.064 69.848C50.1665 70.478 49.0966 70.816 48 70.816C46.9034 70.816 45.8335 70.478 44.936 69.848L29.0107 58.6667ZM67.8427 64.5867L54.1307 74.2134C52.3351 75.4745 50.1942 76.1512 48 76.1512C45.8058 76.1512 43.6649 75.4745 41.8693 74.2134L28.1573 64.5867C24.3076 65.9358 20.5434 67.5174 16.8853 69.3227C13.4293 71.0454 10.2667 72.9574 8.04267 74.9014C5.64 77 5.33333 78.248 5.33333 78.5787V90.6667H90.6667V78.5787C90.6667 78.248 90.36 77 87.9573 74.8987C85.7333 72.9574 82.5707 71.0454 79.112 69.32C76.0306 67.8015 72.8736 66.4415 69.6533 65.2454C68.9867 64.9947 68.3787 64.776 67.8427 64.584V64.5867Z" fill="#EEEEEE"/>
</svg>
