<svg width="96" height="96" viewBox="0 0 96 96" fill="none" xmlns="http://www.w3.org/2000/svg">
<path fill-rule="evenodd" clip-rule="evenodd" d="M74.6667 26.6667C74.6667 41.3947 62.728 53.3333 48 53.3333C33.272 53.3333 21.3333 41.3947 21.3333 26.6667C21.3333 11.9387 33.272 0 48 0C62.728 0 74.6667 11.9387 74.6667 26.6667ZM69.3333 26.6667C69.3333 32.3246 67.0857 37.7508 63.0849 41.7516C59.0842 45.7524 53.658 48 48 48C42.342 48 36.9158 45.7524 32.9151 41.7516C28.9143 37.7508 26.6667 32.3246 26.6667 26.6667C26.6667 21.0087 28.9143 15.5825 32.9151 11.5817C36.9158 7.58095 42.342 5.33333 48 5.33333C53.658 5.33333 59.0842 7.58095 63.0849 11.5817C67.0857 15.5825 69.3333 21.0087 69.3333 26.6667ZM31.7707 60.9467L31.8 61.0053L32 61.3973H63.3307C63.9413 60.24 65.3253 58.3947 66.6667 58.7013C69.68 59.3867 72.7147 60.3413 75.6293 61.5173L75.7173 61.4747L75.7467 61.5333L75.768 61.5733C86.7413 66.032 96 73.5893 96 81.52V96H0V81.52C0 71.4533 14.9227 61.9813 29.3333 58.7013C30.5093 58.4347 31.208 59.8213 31.7707 60.9467ZM71.2107 65.5547C70.0667 65.1542 68.9096 64.7922 67.7413 64.4693L66.552 66.7307H28.7813L27.6773 64.632L26.7173 64.92C26.6987 65.096 26.6827 65.2933 26.6747 65.5173C26.64 66.4373 26.7093 67.528 26.8613 68.6373C27.0173 69.7943 27.2671 70.9368 27.608 72.0533C29.4812 72.2753 31.2158 73.152 32.5054 74.5287C33.795 75.9054 34.5566 77.6935 34.6557 79.5773C34.7549 81.461 34.1852 83.3192 33.0473 84.8237C31.9094 86.3281 30.2764 87.3821 28.4368 87.7995C26.5972 88.2169 24.6693 87.9708 22.9936 87.1046C21.3178 86.2385 20.002 84.8081 19.2785 83.066C18.5551 81.3239 18.4705 79.3822 19.0397 77.5838C19.6089 75.7854 20.7953 74.2459 22.3893 73.2373L22.368 73.1627C22.0127 71.9159 21.748 70.645 21.576 69.36C21.4629 68.539 21.3881 67.7133 21.352 66.8853C18.056 68.2933 14.9813 69.9947 12.4053 71.872C7.28 75.616 5.33333 79.1147 5.33333 81.52V90.6667H90.6667V81.52C90.6667 79.112 88.72 75.6133 83.5947 71.8747C81.3598 70.2677 78.9797 68.8732 76.4853 67.7093C76.3768 69.1546 76.1557 70.5892 75.824 72H77.3333C77.8284 72.0003 78.3137 72.1384 78.7347 72.3988C79.1558 72.6593 79.496 73.0318 79.7173 73.4747L82.384 78.808C82.5707 79.1787 82.6667 79.5867 82.6667 80V85.3333C82.6667 86.0406 82.3857 86.7189 81.8856 87.219C81.3855 87.7191 80.7072 88 80 88H74.6667V82.6667H77.3333V80.6293L75.6853 77.3333H68.3147L66.6667 80.6293V82.6667H69.3333V88H64C63.2928 88 62.6145 87.7191 62.1144 87.219C61.6143 86.7189 61.3333 86.0406 61.3333 85.3333V80C61.3333 79.5867 61.4293 79.1787 61.616 78.808L64.2827 73.4747C64.504 73.0318 64.8442 72.6593 65.2653 72.3988C65.6863 72.1384 66.1716 72.0003 66.6667 72H70.2987C70.3307 71.8933 70.3653 71.7867 70.3973 71.6693C70.648 70.8133 70.872 69.7493 71.024 68.64C71.1733 67.5413 71.2427 66.4667 71.2107 65.5547ZM29.3333 80C29.3333 81.5307 28.1013 82.7067 26.6667 82.7067C25.232 82.7067 24 81.5333 24 80C24 78.4693 25.232 77.2933 26.6667 77.2933C28.1013 77.2933 29.3333 78.4667 29.3333 80Z" fill="#EEEEEE"/>
</svg>
