<svg width="72" height="96" viewBox="0 0 72 96" fill="none" xmlns="http://www.w3.org/2000/svg">
<path d="M35.9998 12.0004C32.8172 12.0004 29.7649 13.2647 27.5145 15.5151C25.264 17.7656 23.9998 20.8178 23.9998 24.0004C23.9998 27.183 25.264 30.2352 27.5145 32.4857C29.7649 34.7361 32.8172 36.0004 35.9998 36.0004C39.1824 36.0004 42.2346 34.7361 44.485 32.4857C46.7355 30.2352 47.9998 27.183 47.9998 24.0004C47.9998 20.8178 46.7355 17.7656 44.485 15.5151C42.2346 13.2647 39.1824 12.0004 35.9998 12.0004ZM29.9998 24.0004C29.9998 22.4091 30.6319 20.883 31.7571 19.7578C32.8823 18.6325 34.4085 18.0004 35.9998 18.0004C37.5911 18.0004 39.1172 18.6325 40.2424 19.7578C41.3676 20.883 41.9998 22.4091 41.9998 24.0004C41.9998 25.5917 41.3676 27.1178 40.2424 28.243C39.1172 29.3683 37.5911 30.0004 35.9998 30.0004C34.4085 30.0004 32.8823 29.3683 31.7571 28.243C30.6319 27.1178 29.9998 25.5917 29.9998 24.0004ZM14.9998 75.0004C14.2041 75.0004 13.441 75.3165 12.8784 75.8791C12.3158 76.4417 11.9998 77.2048 11.9998 78.0004C11.9998 78.796 12.3158 79.5591 12.8784 80.1217C13.441 80.6843 14.2041 81.0004 14.9998 81.0004H56.9998C57.7954 81.0004 58.5585 80.6843 59.1211 80.1217C59.6837 79.5591 59.9998 78.796 59.9998 78.0004C59.9998 77.2048 59.6837 76.4417 59.1211 75.8791C58.5585 75.3165 57.7954 75.0004 56.9998 75.0004H14.9998ZM-0.000244141 12.0004C-0.000244141 8.8178 1.26404 5.76555 3.51447 3.51511C5.76491 1.26468 8.81716 0.000396729 11.9998 0.000396729H59.9998C63.1824 0.000396729 66.2346 1.26468 68.485 3.51511C70.7355 5.76555 71.9998 8.8178 71.9998 12.0004V84.0004C71.9998 87.183 70.7355 90.2352 68.485 92.4857C66.2346 94.7361 63.1824 96.0004 59.9998 96.0004H11.9998C8.81716 96.0004 5.76491 94.7361 3.51447 92.4857C1.26404 90.2352 -0.000244141 87.183 -0.000244141 84.0004V12.0004ZM59.9998 6.0004H11.9998C10.4085 6.0004 8.88233 6.63254 7.75712 7.75776C6.6319 8.88297 5.99976 10.4091 5.99976 12.0004V60.0004H17.9998V48.0004C17.9998 46.4091 18.6319 44.883 19.7571 43.7578C20.8823 42.6325 22.4085 42.0004 23.9998 42.0004H47.9998C49.5911 42.0004 51.1172 42.6325 52.2424 43.7578C53.3676 44.883 53.9998 46.4091 53.9998 48.0004V60.0004H65.9998V12.0004C65.9998 10.4091 65.3676 8.88297 64.2424 7.75776C63.1172 6.63254 61.5911 6.0004 59.9998 6.0004ZM47.9998 48.0004H23.9998V60.0004H47.9998V48.0004ZM5.99976 66.0004V84.0004C5.99976 85.5917 6.6319 87.1178 7.75712 88.243C8.88233 89.3683 10.4085 90.0004 11.9998 90.0004H59.9998C61.5911 90.0004 63.1172 89.3683 64.2424 88.243C65.3676 87.1178 65.9998 85.5917 65.9998 84.0004V66.0004H5.99976Z" fill="#EEEEEE"/>
</svg>
