<svg width="96" height="96" viewBox="0 0 96 96" fill="none" xmlns="http://www.w3.org/2000/svg">
<path d="M21 0C21.7956 0 22.5587 0.316071 23.1213 0.87868C23.6839 1.44129 24 2.20435 24 3V6H72V3C72 2.20435 72.3161 1.44129 72.8787 0.87868C73.4413 0.316071 74.2044 0 75 0C75.7956 0 76.5587 0.316071 77.1213 0.87868C77.6839 1.44129 78 2.20435 78 3V6H84C87.1826 6 90.2348 7.26428 92.4853 9.51472C94.7357 11.7652 96 14.8174 96 18V84C96 87.1826 94.7357 90.2348 92.4853 92.4853C90.2348 94.7357 87.1826 96 84 96H12C8.8174 96 5.76516 94.7357 3.51472 92.4853C1.26428 90.2348 0 87.1826 0 84V18C0 14.8174 1.26428 11.7652 3.51472 9.51472C5.76516 7.26428 8.8174 6 12 6H18V3C18 2.20435 18.3161 1.44129 18.8787 0.87868C19.4413 0.316071 20.2044 0 21 0V0ZM6 24V84C6 85.5913 6.63214 87.1174 7.75736 88.2426C8.88258 89.3679 10.4087 90 12 90H84C85.5913 90 87.1174 89.3679 88.2426 88.2426C89.3679 87.1174 90 85.5913 90 84V24H6Z" fill="#EEEEEE"/>
</svg>
